#N canvas 142 260 1855 1029 10;
#N canvas 427 185 450 280 clearDisplay 0;
#X obj 22 29 inlet;
#X text 74 30 Whants a bang to clear the entire display;
#X obj 22 147 spigot;
#X msg 22 176 1;
#X obj 55 117 r InfoBar;
#X obj 22 207 s InfoBar;
#X msg 120 117 /ttui/displayPaint;
#X obj 22 66 t b b b;
#X obj 120 207 s IIoscOut;
#X msg 235 117 /ttui/displayClear 0;
#X connect 0 0 7 0;
#X connect 2 0 3 0;
#X connect 3 0 5 0;
#X connect 4 0 2 1;
#X connect 6 0 8 0;
#X connect 7 0 2 0;
#X connect 7 1 6 0;
#X connect 7 2 9 0;
#X connect 9 0 8 0;
#X restore 17 101 pd clearDisplay;
#X text 14 8 gClear;
#X text 163 8 gSetPixel;
#X text 1081 6 gLine;
#X text 603 8 gFillArea;
#X text 1105 441 gCircle;
#X text 1393 446 gFilledCircle;
#X text 1378 9 gPrintln;
#X text 23 451 gCleanln;
#X text 880 444 gInvertArea;
#X obj 192 118 list split 1;
#X obj 226 145 list split 1;
#N canvas 531 266 559 337 drawPixel 0;
#X obj 98 129 int;
#X obj 168 129 int;
#X obj 241 128 int;
#X obj 33 76 bng 15 250 50 0 empty empty empty 17 7 0 10 -262144 -1
-1;
#X obj 303 43 inlet;
#X obj 124 46 inlet;
#X obj 197 46 inlet;
#X text 282 17 intensity;
#X text 100 19 x coordenade;
#X text 186 18 y coordenade;
#X obj 33 49 inlet;
#X text 34 21 bang;
#X obj 98 165 pack 0 0 0;
#X msg 77 222 \$1 \$2 \$3;
#X obj 77 193 list;
#X obj 33 97 t b b b;
#X msg 77 256 /ttui/gSetPixel 0 \$1 \$2 \$3;
#X obj 77 287 s IIoscOut;
#X connect 0 0 12 0;
#X connect 1 0 12 1;
#X connect 2 0 12 2;
#X connect 3 0 15 0;
#X connect 4 0 0 1;
#X connect 5 0 1 1;
#X connect 6 0 2 1;
#X connect 10 0 3 0;
#X connect 12 0 14 1;
#X connect 13 0 16 0;
#X connect 14 0 13 0;
#X connect 15 0 14 0;
#X connect 15 1 12 0;
#X connect 15 2 0 0;
#X connect 15 2 1 0;
#X connect 15 2 2 0;
#X connect 16 0 17 0;
#X restore 205 261 pd drawPixel;
#X msg 308 224 16;
#X obj 17 68 routeOSC /oled/gClear;
#X obj 165 63 routeOSC /oled/gSetPixel;
#X obj 165 88 t b l;
#X obj 260 172 list split 1;
#X text 162 297 gSetPixel Example;
#X obj 15 187 s IoscOut;
#X text 14 131 gClear Example;
#X obj 378 117 list split 1;
#X obj 412 144 list split 1;
#X obj 548 249 sel 0 1;
#X obj 351 87 t b l;
#X obj 514 226 list split 1;
#X text 352 8 gBox;
#X obj 446 172 list split 1;
#X obj 480 199 list split 1;
#X text 366 338 gBox Example;
#X obj 351 62 routeOSC /oled/gBox;
#X obj 635 119 list split 1;
#X obj 669 146 list split 1;
#X msg 835 279 16;
#X obj 608 89 t b l;
#X obj 771 227 list split 1;
#X obj 703 174 list split 1;
#X obj 737 201 list split 1;
#X obj 608 64 routeOSC /oled/gFillArea;
#X text 629 335 gFillArea Example;
#X text 15 759 gCleanln Example;
#X text 212 762 gInvertLine Example;
#X obj 221 518 routeOSC /oled/gInvertLine;
#X text 208 462 gInvertLine;
#X obj 25 541 list split 1;
#X obj 221 545 list split 1;
#X msg 163 323 /oled/gSetPixel 0 30 40 1;
#X text 397 761 gInvertLine Example;
#X obj 406 518 routeOSC /oled/invertline;
#X text 393 461 invertline;
#X text 590 449 line;
#X text 589 814 line Example;
#X obj 592 719 list append;
#X obj 592 748 list trim;
#X obj 592 527 list split 1;
#X obj 592 499 routeOSC /oled/line;
#X msg 592 590 1;
#X msg 622 590 2;
#X msg 652 590 3;
#X msg 682 590 4;
#X msg 592 625 \$1;
#X obj 592 656 t f f;
#X obj 592 561 sel /1 /2 /3 /4 /5;
#X msg 718 590 5;
#X obj 26 575 sel 0 1 2 3 4;
#X obj 255 584 sel 0 1 2 3 4;
#X obj 25 509 routeOSC /oled/gCleanln;
#X msg 397 785 /oled/invertline 3;
#X msg 15 785 /oled/gCleanln 0 3;
#X text 1086 342 gLine Example;
#X obj 1110 121 list split 1;
#X obj 1144 148 list split 1;
#X obj 1280 253 sel 0 1;
#X obj 1083 91 t b l;
#X obj 1246 227 list split 1;
#X obj 1178 176 list split 1;
#X obj 1212 203 list split 1;
#X obj 1083 66 routeOSC /oled/gLine;
#X msg 1093 366 /oled/gLine 0 20 30 20 40 1;
#X text 887 8 gShowInfoBar;
#X obj 887 95 list split 1;
#X obj 887 67 routeOSC /oled/gShowInfoBar;
#X text 876 171 gShowInfoBar Example (OFF-ON);
#X msg 642 376 /oled/gFillArea 0 64 1 128 64 1;
#X msg 15 157 /oled/gClear 3 1;
#X text 12 215 gFlip;
#X obj 15 273 routeOSC /oled/gFlip;
#X msg 13 364 /oled/gFlip 3;
#X msg 173 347 /oled/gSetPixel 0 30 40 0;
#X msg 629 354 /oled/gFillArea 0 128 64 64 1 0;
#X msg 805 279 0;
#X msg 1280 281 0;
#X msg 278 224 0;
#X msg 548 277 0;
#X obj 1407 116 list split 1;
#X obj 1441 143 list split 1;
#X msg 1546 283 16;
#X obj 1516 257 sel 0 1;
#X obj 1380 86 t b l;
#X obj 1543 224 list split 1;
#X obj 1475 171 list split 1;
#X obj 1509 198 list split 1;
#X msg 1516 283 0;
#X obj 1380 61 routeOSC /oled/gPrintln;
#N canvas 513 213 568 434 drawText 0;
#X obj 301 42 inlet;
#X obj 106 45 inlet;
#X obj 170 45 inlet;
#X text 294 16 intensity;
#X obj 33 49 inlet;
#X text 34 21 bang;
#X obj 236 42 inlet;
#X obj 375 41 inlet;
#X obj 33 77 bng 15 250 50 0 empty empty empty 17 7 0 10 -262144 -1
-1;
#X obj 102 185 list;
#X obj 33 100 t b b;
#X text 94 19 x coord.;
#X text 158 19 y coord.;
#X text 223 18 Font Size;
#X text 362 16 Text to Print;
#X obj 102 277 list append;
#X obj 102 310 list trim;
#X obj 143 153 pack 0 0 0 0;
#X msg 102 214 \$1 \$2 \$3 \$4;
#X obj 170 90 + 5;
#X obj 102 345 s IoscOut;
#X msg 102 245 /ttui/gText 0 \$1 \$2 \$3;
#X connect 0 0 17 0;
#X connect 1 0 17 1;
#X connect 2 0 19 0;
#X connect 4 0 8 0;
#X connect 6 0 17 3;
#X connect 7 0 15 1;
#X connect 8 0 10 0;
#X connect 9 0 18 0;
#X connect 10 0 9 0;
#X connect 10 1 17 0;
#X connect 15 0 16 0;
#X connect 16 0 20 0;
#X connect 17 0 9 1;
#X connect 18 0 21 0;
#X connect 19 0 17 2;
#X connect 21 0 15 0;
#X restore 1390 320 pd drawText;
#X f 31;
#X text 1388 345 gPrintln Example;
#X obj 294 195 sel 0 1 2;
#X obj 805 251 sel 0 1 2;
#X msg 867 279 1;
#X msg 338 224 1;
#N canvas 585 246 462 311 drawArea 0;
#X obj 370 41 inlet;
#X obj 106 45 inlet;
#X obj 170 45 inlet;
#X text 363 15 intensity;
#X obj 33 49 inlet;
#X text 34 21 bang;
#X obj 236 42 inlet;
#X obj 302 40 inlet;
#X obj 33 77 bng 15 250 50 0 empty empty empty 17 7 0 10 -262144 -1
-1;
#X obj 102 185 list;
#X obj 143 153 pack 0 0 0 0 0;
#X msg 102 214 \$1 \$2 \$3 \$4 \$5;
#X obj 33 100 t b b;
#X text 223 18 x length;
#X text 289 15 y length;
#X text 94 19 x coord.;
#X text 158 19 y coord.;
#X obj 103 277 s IoscOut;
#X msg 102 246 /ttui/gFillArea \$1 \$2 \$3 \$4 \$5;
#X connect 0 0 10 0;
#X connect 1 0 10 1;
#X connect 2 0 10 2;
#X connect 4 0 8 0;
#X connect 6 0 10 3;
#X connect 7 0 10 4;
#X connect 8 0 12 0;
#X connect 9 0 11 0;
#X connect 10 0 9 1;
#X connect 11 0 18 0;
#X connect 12 0 9 0;
#X connect 12 1 10 0;
#X connect 18 0 17 0;
#X restore 622 310 pd drawArea;
#X f 31;
#X msg 212 785 /oled/gInvertLine 3 3;
#X msg 888 197 /oled/gShowInfoBar 3 0;
#X msg 901 220 /oled/gShowInfoBar 3 1;
#X obj 921 130 s InfoBar;
#X obj 917 556 list split 1;
#X obj 951 583 list split 1;
#X obj 890 526 t b l;
#X obj 985 611 list split 1;
#X obj 1019 638 list split 1;
#X obj 890 501 routeOSC /oled/gInvertArea;
#X text 902 778 gInvertArea Example;
#N canvas 444 273 578 379 invertArea 0;
#X obj 106 45 inlet;
#X obj 170 45 inlet;
#X obj 33 49 inlet;
#X text 34 21 bang;
#X obj 236 42 inlet;
#X obj 302 40 inlet;
#X obj 33 77 bng 15 250 50 0 empty empty empty 17 7 0 10 -262144 -1
-1;
#X obj 102 185 list;
#X obj 33 100 t b b;
#X text 223 18 x length;
#X text 289 15 y length;
#X text 94 19 x coord.;
#X text 158 19 y coord.;
#X obj 102 281 s IoscOut;
#X obj 143 153 pack 0 0 0 0;
#X msg 102 214 \$1 \$2 \$3 \$4;
#X msg 102 250 /ttui/gInvertArea 0 \$1 \$2 \$3 \$4;
#X connect 0 0 14 0;
#X connect 1 0 14 1;
#X connect 2 0 6 0;
#X connect 4 0 14 2;
#X connect 5 0 14 3;
#X connect 6 0 8 0;
#X connect 7 0 15 0;
#X connect 8 0 7 0;
#X connect 8 1 14 0;
#X connect 14 0 7 1;
#X connect 15 0 16 0;
#X connect 16 0 13 0;
#X restore 904 747 pd invertArea;
#X f 31;
#X obj 1138 551 list split 1;
#X obj 1172 578 list split 1;
#X obj 1111 521 t b l;
#X obj 1206 606 list split 1;
#X obj 1240 633 list split 1;
#X msg 1274 699 0;
#X obj 1274 671 sel 0 1 2;
#X text 1123 773 gInvertArea Example;
#X obj 1111 496 routeOSC /oled/gCircle;
#N canvas 444 273 517 310 gCircle 0;
#X obj 298 40 inlet;
#X obj 106 45 inlet;
#X obj 170 45 inlet;
#X obj 33 49 inlet;
#X text 34 21 bang;
#X obj 236 42 inlet;
#X obj 33 77 bng 15 250 50 0 empty empty empty 17 7 0 10 -262144 -1
-1;
#X obj 102 185 list;
#X obj 33 100 t b b;
#X text 94 19 x coord.;
#X text 158 19 y coord.;
#X text 236 19 size;
#X text 292 17 intensity;
#X obj 143 153 pack 0 0 0 0;
#X msg 102 214 \$1 \$2 \$3 \$4;
#X obj 238 115 + 1;
#X obj 102 277 s IoscOut;
#X msg 102 246 /ttui/gCircle 0 \$1 \$2 \$3 \$4;
#X connect 0 0 13 0;
#X connect 1 0 13 1;
#X connect 2 0 13 2;
#X connect 3 0 6 0;
#X connect 5 0 15 0;
#X connect 6 0 8 0;
#X connect 7 0 14 0;
#X connect 8 0 7 0;
#X connect 8 1 13 0;
#X connect 13 0 7 1;
#X connect 14 0 17 0;
#X connect 15 0 13 3;
#X connect 17 0 16 0;
#X restore 1121 742 pd gCircle;
#X f 26;
#X msg 1307 699 16;
#X msg 1123 796 /oled/gCircle 3 10 10 3 1;
#X obj 1420 554 list split 1;
#X obj 1454 581 list split 1;
#X obj 1393 524 t b l;
#X obj 1488 609 list split 1;
#X obj 1522 636 list split 1;
#X msg 1556 702 0;
#X obj 1556 674 sel 0 1 2;
#X text 1405 776 gInvertArea Example;
#X msg 1589 702 16;
#X obj 1393 499 routeOSC /oled/gFilledCircle;
#N canvas 510 237 517 310 gFilledCircle 0;
#X obj 298 40 inlet;
#X obj 106 45 inlet;
#X obj 170 45 inlet;
#X obj 33 49 inlet;
#X text 34 21 bang;
#X obj 236 42 inlet;
#X obj 33 77 bng 15 250 50 0 empty empty empty 17 7 0 10 -262144 -1
-1;
#X obj 101 181 list;
#X obj 33 100 t b b;
#X text 94 19 x coord.;
#X text 158 19 y coord.;
#X text 236 19 size;
#X text 292 17 intensity;
#X obj 143 153 pack 0 0 0 0;
#X msg 101 210 \$1 \$2 \$3 \$4;
#X obj 101 272 s IoscOut;
#X msg 101 241 /ttui/gFilledCircle 0 \$1 \$2 \$3 \$4;
#X connect 0 0 13 0;
#X connect 1 0 13 1;
#X connect 2 0 13 2;
#X connect 3 0 6 0;
#X connect 5 0 13 3;
#X connect 6 0 8 0;
#X connect 7 0 14 0;
#X connect 8 0 7 0;
#X connect 8 1 13 0;
#X connect 13 0 7 1;
#X connect 14 0 16 0;
#X connect 16 0 15 0;
#X restore 1403 745 pd gFilledCircle;
#X f 26;
#X msg 1405 799 /oled/gFilledCircle 3 10 10 3 1;
#X obj 1675 558 list split 1;
#X obj 1648 525 t b l;
#X msg 1660 655 0;
#X msg 1693 655 16;
#X text 1648 447 gWaveform;
#X obj 1648 500 routeOSC /oled/gWaveform;
#N canvas 400 325 404 323 gWaveform 0;
#X obj 85 44 inlet;
#X obj 225 42 inlet;
#X obj 30 44 inlet;
#X text 31 21 bang;
#X obj 30 72 bng 15 250 50 0 empty empty empty 17 7 0 10 -262144 -1
-1;
#X obj 30 103 list;
#X text 79 21 intensity;
#X text 222 18 wave;
#X msg 30 132 \$1;
#X obj 162 209 list append;
#X obj 162 242 list trim;
#X obj 162 277 s IoscOut;
#X msg 30 163 sendtyped /ttui/gWaveform 0 \$1;
#X connect 0 0 5 1;
#X connect 1 0 9 1;
#X connect 2 0 4 0;
#X connect 4 0 5 0;
#X connect 5 0 8 0;
#X connect 8 0 12 0;
#X connect 9 0 10 0;
#X connect 10 0 11 0;
#X connect 12 0 9 0;
#X restore 1648 710 pd gWaveform;
#X f 13;
#X msg 1654 765 /oled/gWaveform 3 1;
#X text 1654 742 gWaveform Example;
#N canvas 300 336 637 321 gLine 0;
#X obj 417 39 inlet;
#X obj 153 43 inlet;
#X obj 217 43 inlet;
#X obj 80 47 inlet;
#X text 81 19 bang;
#X obj 283 40 inlet;
#X obj 349 38 inlet;
#X obj 80 75 bng 15 250 50 0 empty empty empty 17 7 0 10 -262144 -1
-1;
#X obj 149 183 list;
#X obj 190 151 pack 0 0 0 0 0;
#X msg 149 212 \$1 \$2 \$3 \$4 \$5;
#X text 410 13 intensity;
#X text 141 17 x1 coord.;
#X text 205 17 y1 coord.;
#X text 270 16 x2 coord.;
#X text 336 13 y2 coord;
#X obj 149 274 s IoscOut;
#X obj 80 98 t b b b;
#X msg 149 243 /ttui/gLine 0 \$1 \$2 \$3 \$4 \$5;
#X connect 0 0 9 0;
#X connect 1 0 9 1;
#X connect 2 0 9 2;
#X connect 3 0 7 0;
#X connect 5 0 9 3;
#X connect 6 0 9 4;
#X connect 7 0 17 0;
#X connect 8 0 10 0;
#X connect 9 0 8 1;
#X connect 10 0 18 0;
#X connect 17 1 8 0;
#X connect 17 2 9 0;
#X connect 18 0 16 0;
#X restore 1095 311 pd gLine;
#X f 31;
#X msg 1310 281 1;
#N canvas 0 54 450 300 refreshScreen 0;
#X obj 54 32 inlet;
#X obj 54 95 s IoscOut;
#X msg 54 64 /ttui/displayPaint;
#X connect 0 0 2 0;
#X connect 2 0 1 0;
#X restore 15 306 pd refreshScreen;
#X text 1637 19 gInvert;
#X obj 1640 79 routeOSC /oled/gInvert;
#N canvas 427 185 450 280 gInvert 0;
#X obj 23 36 inlet;
#X obj 23 106 s IoscOut;
#X msg 23 74 /ttui/gInvert 0 0;
#X connect 0 0 2 0;
#X connect 2 0 1 0;
#X restore 1640 112 pd gInvert;
#X msg 736 687 /ttui/clearLine 0 \$1;
#X obj 592 789 s IoscOut;
#X msg 592 689 /ttui/textLine 16 \$1 0;
#X msg 589 836 /oled/line/4 test;
#X msg 86 604 /ttui/clearLine 0 5;
#X msg 73 626 /ttui/clearLine 0 4;
#X msg 56 648 /ttui/clearLine 0 3;
#X msg 41 670 /ttui/clearLine 0 2;
#X msg 26 694 /ttui/clearLine 0 1;
#X msg 315 613 /ttui/invertLine 5 0;
#X msg 302 635 /ttui/invertLine 4 0;
#X msg 285 656 /ttui/invertLine 3 0;
#X msg 270 679 /ttui/invertLine 2 0;
#X msg 255 703 /ttui/invertLine 1 0;
#N canvas 327 227 939 472 drawBox 0;
#X obj 80 94 bng 15 250 50 0 empty empty empty 17 7 0 10 -262144 -1
-1;
#X obj 430 40 inlet;
#X obj 122 40 inlet;
#X obj 195 40 inlet;
#X text 409 15 intensity;
#X obj 39 37 inlet;
#X text 37 14 bang;
#X obj 269 40 inlet;
#X obj 342 40 inlet;
#X obj 125 219 pack 0 0 0 0 0 0 0, f 46;
#X msg 125 246 \$1 \$2 \$3 \$4 \$5 \$6 \$7;
#X obj 79 277 list;
#X obj 81 119 t b b;
#X text 110 17 x coord.;
#X text 183 17 y coord.;
#X text 256 16 x length;
#X text 329 15 y length.;
#X obj 352 157 +;
#X obj 398 158 +;
#X obj 398 187 - 1;
#X obj 79 398 s IoscOut;
#X msg 79 333 /ttui/gFillArea 0 \$1 \$2 \$3 \$4 1;
#X msg 283 333 /ttui/gFillArea 0 \$1 \$2 \$7 \$4 1;
#X msg 484 332 /ttui/gFillArea 0 \$1 \$6 \$3 1 \$5;
#X msg 695 331 /ttui/gFillArea 0 \$1 \$2 \$3 1 \$5;
#X connect 0 0 12 0;
#X connect 1 0 9 0;
#X connect 2 0 9 1;
#X connect 2 0 17 0;
#X connect 3 0 9 2;
#X connect 3 0 18 0;
#X connect 5 0 0 0;
#X connect 7 0 9 3;
#X connect 7 0 17 1;
#X connect 8 0 9 4;
#X connect 8 0 18 1;
#X connect 9 0 10 0;
#X connect 10 0 11 1;
#X connect 11 0 21 0;
#X connect 11 0 22 0;
#X connect 11 0 23 0;
#X connect 11 0 24 0;
#X connect 12 0 11 0;
#X connect 12 1 9 0;
#X connect 12 1 17 0;
#X connect 12 1 18 0;
#X connect 17 0 9 5;
#X connect 18 0 19 0;
#X connect 19 0 9 6;
#X connect 21 0 20 0;
#X connect 22 0 20 0;
#X connect 23 0 20 0;
#X connect 24 0 20 0;
#X restore 397 310 pd drawBox;
#X f 26;
#X msg 578 277 16;
#X msg 376 383 /oled/gBox 0 20 30 20 20 0;
#X msg 366 364 /oled/gBox 0 20 30 20 20 1;
#X msg 1652 347 /oled/gInvert;
#X text 1645 323 gInvert Example;
#X obj 1660 627 sel 0 1;
#X obj 1689 592 list split 1;
#X msg 902 801 /oled/gInvertArea 3 1 1 10 10;
#X obj 15 240 r oscInternal;
#X msg 1395 369 /oled/gPrintln 3 20 30 1 1 Test test;
#X text 12 338 gFlip Example;
#X obj 163 384 s oscOut;
#X obj 366 404 s oscOut;
#X obj 629 405 s oscOut;
#X obj 1093 396 s oscOut;
#X obj 1395 399 s oscOut;
#X obj 1652 377 s oscOut;
#X obj 13 394 s oscOut;
#X obj 26 732 s oscOut;
#X obj 255 741 s oscOut;
#X obj 212 815 s oscOut;
#X obj 397 815 s oscOut;
#X obj 15 815 s oscOut;
#X obj 589 864 s oscOut;
#X obj 902 827 s oscOut;
#X obj 1123 822 s oscOut;
#X obj 1405 825 s oscOut;
#X obj 1654 791 s oscOut;
#X obj 17 33 r oscOut;
#X obj 165 35 r oscOut;
#X obj 351 34 r oscOut;
#X obj 608 36 r oscOut;
#X obj 887 35 r oscOut;
#X obj 1083 31 r oscOut;
#X obj 1380 33 r oscOut;
#X obj 1640 44 r oscOut;
#X obj 1648 472 r oscOut;
#X obj 1393 471 r oscOut;
#X obj 1111 468 r oscOut;
#X obj 890 473 r oscOut;
#X obj 592 468 r oscOut;
#X obj 406 485 r oscOut;
#X obj 221 486 r oscOut;
#X obj 25 477 r oscOut;
#X obj 888 250 s oscOut;
#X text 21 931 note: based on work done by OxBrown : https://github.com/oxbown/NornsMother
;
#X text 300 931 TODO: some functionality \, particularly inversion
is not supported by TT OLED;
#X connect 10 1 11 0;
#X connect 11 0 12 1;
#X connect 11 1 17 0;
#X connect 13 0 12 3;
#X connect 14 0 0 0;
#X connect 15 0 16 0;
#X connect 16 0 12 0;
#X connect 16 1 10 0;
#X connect 17 0 12 2;
#X connect 17 1 106 0;
#X connect 21 1 22 0;
#X connect 22 0 176 1;
#X connect 22 1 27 0;
#X connect 23 0 93 0;
#X connect 23 1 177 0;
#X connect 24 0 176 0;
#X connect 24 1 21 0;
#X connect 25 0 176 4;
#X connect 25 1 23 0;
#X connect 27 0 176 2;
#X connect 27 1 28 0;
#X connect 28 0 176 3;
#X connect 28 1 25 0;
#X connect 30 0 24 0;
#X connect 31 1 32 0;
#X connect 32 0 110 1;
#X connect 32 1 36 0;
#X connect 33 0 110 5;
#X connect 34 0 110 0;
#X connect 34 1 31 0;
#X connect 35 0 110 4;
#X connect 35 1 107 0;
#X connect 36 0 110 2;
#X connect 36 1 37 0;
#X connect 37 0 110 3;
#X connect 37 1 35 0;
#X connect 38 0 34 0;
#X connect 42 0 45 0;
#X connect 44 1 64 0;
#X connect 45 1 65 0;
#X connect 46 0 188 0;
#X connect 48 0 65 0;
#X connect 52 0 53 0;
#X connect 53 0 163 0;
#X connect 54 0 62 0;
#X connect 54 1 52 1;
#X connect 55 0 54 0;
#X connect 56 0 60 0;
#X connect 57 0 60 0;
#X connect 58 0 60 0;
#X connect 59 0 60 0;
#X connect 60 0 61 0;
#X connect 61 0 164 0;
#X connect 61 1 162 0;
#X connect 62 0 56 0;
#X connect 62 1 57 0;
#X connect 62 2 58 0;
#X connect 62 3 59 0;
#X connect 62 4 63 0;
#X connect 63 0 60 0;
#X connect 64 0 170 0;
#X connect 64 1 169 0;
#X connect 64 2 168 0;
#X connect 64 3 167 0;
#X connect 64 4 166 0;
#X connect 65 0 175 0;
#X connect 65 1 174 0;
#X connect 65 2 173 0;
#X connect 65 3 172 0;
#X connect 65 4 171 0;
#X connect 66 0 44 0;
#X connect 67 0 198 0;
#X connect 68 0 199 0;
#X connect 70 1 71 0;
#X connect 71 0 156 1;
#X connect 71 1 75 0;
#X connect 72 0 91 0;
#X connect 72 1 157 0;
#X connect 73 0 156 0;
#X connect 73 1 70 0;
#X connect 74 0 156 4;
#X connect 74 1 72 0;
#X connect 75 0 156 2;
#X connect 75 1 76 0;
#X connect 76 0 156 3;
#X connect 76 1 74 0;
#X connect 77 0 73 0;
#X connect 78 0 191 0;
#X connect 80 1 114 0;
#X connect 81 0 80 0;
#X connect 83 0 190 0;
#X connect 84 0 19 0;
#X connect 87 0 194 0;
#X connect 88 0 188 0;
#X connect 89 0 190 0;
#X connect 90 0 110 5;
#X connect 91 0 156 5;
#X connect 92 0 12 3;
#X connect 93 0 176 5;
#X connect 94 1 95 0;
#X connect 95 0 104 1;
#X connect 95 1 100 0;
#X connect 96 0 104 4;
#X connect 97 0 102 0;
#X connect 97 1 96 0;
#X connect 98 0 104 0;
#X connect 98 1 94 0;
#X connect 99 0 97 0;
#X connect 99 1 104 5;
#X connect 100 0 104 2;
#X connect 100 1 101 0;
#X connect 101 0 104 3;
#X connect 101 1 99 0;
#X connect 102 0 104 4;
#X connect 103 0 98 0;
#X connect 106 0 92 0;
#X connect 106 1 13 0;
#X connect 106 2 109 0;
#X connect 107 0 90 0;
#X connect 107 1 33 0;
#X connect 107 2 108 0;
#X connect 108 0 110 5;
#X connect 109 0 12 3;
#X connect 111 0 197 0;
#X connect 112 0 221 0;
#X connect 113 0 221 0;
#X connect 115 1 116 0;
#X connect 116 0 122 1;
#X connect 116 1 118 0;
#X connect 117 0 122 0;
#X connect 117 1 115 0;
#X connect 118 0 122 2;
#X connect 118 1 119 0;
#X connect 119 0 122 3;
#X connect 119 1 122 4;
#X connect 120 0 117 0;
#X connect 123 1 124 0;
#X connect 124 0 132 1;
#X connect 124 1 126 0;
#X connect 125 0 132 0;
#X connect 125 1 123 0;
#X connect 126 0 132 2;
#X connect 126 1 127 0;
#X connect 127 0 132 3;
#X connect 127 1 129 0;
#X connect 128 0 132 4;
#X connect 129 0 128 0;
#X connect 129 1 133 0;
#X connect 131 0 125 0;
#X connect 133 0 132 4;
#X connect 134 0 202 0;
#X connect 135 1 136 0;
#X connect 136 0 145 1;
#X connect 136 1 138 0;
#X connect 137 0 145 0;
#X connect 137 1 135 0;
#X connect 138 0 145 2;
#X connect 138 1 139 0;
#X connect 139 0 145 3;
#X connect 139 1 141 0;
#X connect 140 0 145 4;
#X connect 141 0 140 0;
#X connect 141 1 143 0;
#X connect 143 0 145 4;
#X connect 144 0 137 0;
#X connect 146 0 203 0;
#X connect 147 1 183 0;
#X connect 148 0 153 0;
#X connect 148 1 147 0;
#X connect 149 0 153 1;
#X connect 150 0 153 1;
#X connect 152 0 148 0;
#X connect 154 0 204 0;
#X connect 157 0 156 5;
#X connect 160 0 161 0;
#X connect 162 0 163 0;
#X connect 164 0 52 0;
#X connect 165 0 200 0;
#X connect 166 0 195 0;
#X connect 167 0 195 0;
#X connect 168 0 195 0;
#X connect 169 0 195 0;
#X connect 170 0 195 0;
#X connect 171 0 196 0;
#X connect 172 0 196 0;
#X connect 173 0 196 0;
#X connect 174 0 196 0;
#X connect 175 0 196 0;
#X connect 177 0 176 5;
#X connect 178 0 189 0;
#X connect 179 0 189 0;
#X connect 180 0 193 0;
#X connect 182 0 149 0;
#X connect 182 1 150 0;
#X connect 183 0 182 0;
#X connect 183 1 153 2;
#X connect 184 0 201 0;
#X connect 185 0 86 0;
#X connect 186 0 192 0;
#X connect 205 0 14 0;
#X connect 206 0 15 0;
#X connect 207 0 30 0;
#X connect 208 0 38 0;
#X connect 209 0 81 0;
#X connect 210 0 77 0;
#X connect 211 0 103 0;
#X connect 212 0 160 0;
#X connect 214 0 144 0;
#X connect 215 0 131 0;
#X connect 217 0 55 0;
#X connect 220 0 66 0;
