#N canvas 1738 483 563 361 10;
#N canvas 517 118 623 507 vumeters 0;
#X obj 25 8 inlet;
#X obj 209 110 r outRRaw;
#X obj 197 204 r outLRaw;
#X obj 197 314 r inRRaw;
#X obj 196 419 r inLRaw;
#X msg 118 315 5;
#X msg 121 422 5;
#X obj 81 77 t f b;
#X obj 77 175 t f b;
#X obj 81 280 t f b;
#X obj 81 387 t f b;
#N canvas 712 263 916 727 vumeterIn 0;
#X obj 303 11 inlet;
#X floatatom 303 45 5 0 0 0 - - -;
#X obj 303 194 div 2;
#X obj 303 126 i;
#X obj 303 97 spigot 0;
#X msg 400 44 15;
#X obj 400 75 i;
#X obj 348 70 >;
#X obj 303 149 max;
#X obj 303 172 -;
#X obj 187 12 inlet;
#X obj 229 12 inlet;
#X obj 40 13 inlet;
#X obj 40 47 t b f;
#X obj 39 226 spigot;
#X obj 400 12 loadbang;
#X obj 303 254 change;
#X obj 135 127 r vumeterTime;
#X obj 108 198 delay;
#X obj 50 150 spigot;
#X obj 83 126 tgl 15 0 empty empty empty 17 7 0 10 -262144 -1 -1 0
1;
#X obj 83 96 metro;
#X obj 87 12 r vumeterTime;
#X obj 135 161 - 1;
#X obj 325 306 spigot;
#X obj 358 255 == 0;
#X obj 303 282 delay 1;
#X obj 78 592 s oscOut;
#X obj 277 400 * -1;
#X obj 78 446 +;
#X obj 78 483 pack 0 0 0;
#X obj 176 481 pack 0 0 0;
#X msg 78 511 \$1 \$2 \$3;
#X msg 176 508 \$1 \$2 \$3;
#X msg 78 559 /oled/gFillArea 3 \$1 \$2 \$3 2 2;
#X msg 176 532 /oled/gFillArea 3 \$1 \$2 \$3 2 1;
#X obj 148 341 i;
#X obj 184 341 i;
#X obj 277 370 - 41;
#X obj 303 222 min 41;
#X obj 220 341 i;
#X obj 39 256 t b b b;
#X connect 0 0 1 0;
#X connect 1 0 4 0;
#X connect 1 0 7 0;
#X connect 2 0 39 0;
#X connect 3 0 8 0;
#X connect 4 0 3 0;
#X connect 5 0 6 0;
#X connect 6 0 7 1;
#X connect 6 0 8 1;
#X connect 6 0 9 1;
#X connect 7 0 4 1;
#X connect 8 0 9 0;
#X connect 9 0 2 0;
#X connect 10 0 36 1;
#X connect 11 0 37 1;
#X connect 12 0 13 0;
#X connect 13 0 21 0;
#X connect 13 0 14 0;
#X connect 13 1 14 1;
#X connect 14 0 41 0;
#X connect 15 0 5 0;
#X connect 16 0 19 0;
#X connect 16 0 26 0;
#X connect 17 0 23 0;
#X connect 18 0 14 0;
#X connect 19 0 18 0;
#X connect 20 0 19 1;
#X connect 21 0 20 0;
#X connect 22 0 21 1;
#X connect 23 0 18 1;
#X connect 24 0 14 0;
#X connect 25 0 24 1;
#X connect 26 0 24 0;
#X connect 28 0 30 2;
#X connect 29 0 30 0;
#X connect 30 0 32 0;
#X connect 31 0 33 0;
#X connect 32 0 34 0;
#X connect 33 0 35 0;
#X connect 34 0 27 0;
#X connect 35 0 27 0;
#X connect 36 0 29 0;
#X connect 36 0 31 0;
#X connect 37 0 30 1;
#X connect 37 0 31 1;
#X connect 38 0 28 0;
#X connect 39 0 16 0;
#X connect 39 0 25 0;
#X connect 39 0 40 1;
#X connect 40 0 38 0;
#X connect 40 0 31 2;
#X connect 40 0 29 1;
#X connect 41 0 30 0;
#X connect 41 0 31 0;
#X connect 41 1 36 0;
#X connect 41 1 37 0;
#X connect 41 2 40 0;
#X restore 103 352 pd vumeterIn;
#X obj 301 111 s vumeterTime;
#X obj 301 19 loadbang;
#X text 352 68 Vumeters Refresh Time (ms);
#N canvas 640 193 639 678 vumeterOut 0;
#X obj 286 28 inlet;
#X obj 194 29 inlet;
#X obj 236 29 inlet;
#X obj 46 235 t b b b b;
#X floatatom 286 52 5 0 0 0 - - -;
#X obj 286 110 div 2;
#X obj 286 82 i;
#X obj 287 184 change;
#X obj 46 30 inlet;
#X obj 46 64 t b f;
#X obj 46 198 spigot;
#X obj 98 143 spigot;
#X obj 131 119 tgl 15 0 empty empty empty 17 7 0 10 -262144 -1 -1 0
1;
#X obj 156 124 r vumeterTime;
#X obj 116 187 delay;
#X obj 131 89 metro;
#X obj 100 29 r vumeterTime;
#X obj 155 163 - 1;
#X obj 289 238 spigot;
#X obj 356 194 == 0;
#X obj 289 207 delay 1;
#X obj 98 529 s oscOut;
#X obj 271 336 * -1;
#X obj 98 383 +;
#X obj 98 420 pack 0 0 0;
#X obj 196 418 pack 0 0 0;
#X msg 98 448 \$1 \$2 \$3;
#X msg 196 445 \$1 \$2 \$3;
#X obj 168 278 i;
#X obj 204 278 i;
#X obj 243 277 i 0;
#X obj 286 145 min 41;
#X obj 271 306 - 41;
#X msg 98 496 /oled/gFillArea 3 \$1 \$2 \$3 2 2;
#X msg 196 469 /oled/gFillArea 3 \$1 \$2 \$3 2 1;
#X connect 0 0 4 0;
#X connect 1 0 28 1;
#X connect 2 0 29 1;
#X connect 3 0 25 0;
#X connect 3 0 24 0;
#X connect 3 1 28 0;
#X connect 3 1 29 0;
#X connect 3 2 30 0;
#X connect 4 0 6 0;
#X connect 5 0 31 0;
#X connect 6 0 5 0;
#X connect 7 0 11 0;
#X connect 7 0 20 0;
#X connect 8 0 9 0;
#X connect 9 0 15 0;
#X connect 9 0 10 0;
#X connect 9 1 10 1;
#X connect 10 0 3 0;
#X connect 11 0 14 0;
#X connect 12 0 11 1;
#X connect 13 0 17 0;
#X connect 14 0 10 0;
#X connect 15 0 12 0;
#X connect 16 0 15 1;
#X connect 17 0 14 1;
#X connect 18 0 10 0;
#X connect 19 0 18 1;
#X connect 20 0 18 0;
#X connect 22 0 24 2;
#X connect 23 0 24 0;
#X connect 24 0 26 0;
#X connect 25 0 27 0;
#X connect 26 0 33 0;
#X connect 27 0 34 0;
#X connect 28 0 23 0;
#X connect 28 0 25 0;
#X connect 29 0 24 1;
#X connect 29 0 25 1;
#X connect 30 0 23 1;
#X connect 30 0 25 2;
#X connect 30 0 32 0;
#X connect 31 0 7 0;
#X connect 31 0 19 0;
#X connect 31 0 30 1;
#X connect 32 0 22 0;
#X connect 33 0 21 0;
#X connect 34 0 21 0;
#X restore 125 147 pd vumeterOut;
#X msg 152 208 4;
#X msg 156 422 4;
#N canvas 245 368 639 678 vumeterOut 0;
#X obj 286 28 inlet;
#X obj 194 29 inlet;
#X obj 236 29 inlet;
#X obj 46 235 t b b b b;
#X floatatom 286 52 5 0 0 0 - - -;
#X obj 286 110 div 2;
#X obj 286 82 i;
#X obj 287 184 change;
#X obj 46 30 inlet;
#X obj 46 64 t b f;
#X obj 46 198 spigot;
#X obj 98 143 spigot;
#X obj 131 119 tgl 15 0 empty empty empty 17 7 0 10 -262144 -1 -1 0
1;
#X obj 156 124 r vumeterTime;
#X obj 128 203 delay;
#X obj 131 89 metro;
#X obj 100 29 r vumeterTime;
#X obj 155 163 - 1;
#X obj 289 238 spigot;
#X obj 350 203 == 0;
#X obj 289 207 delay 1;
#X obj 98 529 s oscOut;
#X obj 271 336 * -1;
#X obj 98 383 +;
#X obj 98 420 pack 0 0 0;
#X obj 196 418 pack 0 0 0;
#X msg 98 448 \$1 \$2 \$3;
#X msg 196 445 \$1 \$2 \$3;
#X msg 98 496 /oled/gFillArea 3 \$1 \$2 \$3 2 2;
#X msg 196 469 /oled/gFillArea 3 \$1 \$2 \$3 2 1;
#X obj 168 278 i;
#X obj 204 278 i;
#X obj 243 277 i 0;
#X obj 286 145 min 41;
#X obj 271 306 - 41;
#X connect 0 0 4 0;
#X connect 1 0 30 1;
#X connect 2 0 31 1;
#X connect 3 0 25 0;
#X connect 3 0 24 0;
#X connect 3 1 30 0;
#X connect 3 1 31 0;
#X connect 3 2 32 0;
#X connect 4 0 6 0;
#X connect 5 0 33 0;
#X connect 6 0 5 0;
#X connect 7 0 11 0;
#X connect 7 0 20 0;
#X connect 8 0 9 0;
#X connect 9 0 15 0;
#X connect 9 0 10 0;
#X connect 9 1 10 1;
#X connect 10 0 3 0;
#X connect 11 0 14 0;
#X connect 12 0 11 1;
#X connect 13 0 17 0;
#X connect 14 0 10 0;
#X connect 15 0 12 0;
#X connect 16 0 15 1;
#X connect 17 0 14 1;
#X connect 18 0 10 0;
#X connect 19 0 18 1;
#X connect 20 0 18 0;
#X connect 22 0 24 2;
#X connect 23 0 24 0;
#X connect 24 0 26 0;
#X connect 25 0 27 0;
#X connect 26 0 28 0;
#X connect 27 0 29 0;
#X connect 28 0 21 0;
#X connect 29 0 21 0;
#X connect 30 0 23 0;
#X connect 30 0 25 0;
#X connect 31 0 24 1;
#X connect 31 0 25 1;
#X connect 32 0 23 1;
#X connect 32 0 25 2;
#X connect 32 0 34 0;
#X connect 33 0 7 0;
#X connect 33 0 19 0;
#X connect 33 0 32 1;
#X connect 34 0 22 0;
#X restore 111 246 pd vumeterOut;
#N canvas 712 263 916 727 vumeterIn 0;
#X obj 303 11 inlet;
#X floatatom 303 45 5 0 0 0 - - -;
#X obj 303 194 div 2;
#X obj 303 126 i;
#X obj 303 97 spigot 0;
#X msg 400 44 15;
#X obj 400 75 i;
#X obj 348 70 >;
#X obj 303 149 max;
#X obj 303 172 -;
#X obj 187 12 inlet;
#X obj 229 12 inlet;
#X obj 40 13 inlet;
#X obj 40 47 t b f;
#X obj 39 226 spigot;
#X obj 400 12 loadbang;
#X obj 303 254 change;
#X obj 135 127 r vumeterTime;
#X obj 108 198 delay;
#X obj 50 150 spigot;
#X obj 83 126 tgl 15 0 empty empty empty 17 7 0 10 -262144 -1 -1 0
1;
#X obj 83 96 metro;
#X obj 87 12 r vumeterTime;
#X obj 135 161 - 1;
#X obj 325 306 spigot;
#X obj 358 255 == 0;
#X obj 303 282 delay 1;
#X obj 78 592 s oscOut;
#X obj 277 400 * -1;
#X obj 78 446 +;
#X obj 78 483 pack 0 0 0;
#X obj 176 481 pack 0 0 0;
#X msg 78 511 \$1 \$2 \$3;
#X msg 176 508 \$1 \$2 \$3;
#X msg 78 559 /oled/gFillArea 3 \$1 \$2 \$3 2 2;
#X msg 176 532 /oled/gFillArea 3 \$1 \$2 \$3 2 1;
#X obj 148 341 i;
#X obj 184 341 i;
#X obj 277 370 - 41;
#X obj 303 222 min 41;
#X obj 220 341 i;
#X obj 39 256 t b b b;
#X connect 0 0 1 0;
#X connect 1 0 4 0;
#X connect 1 0 7 0;
#X connect 2 0 39 0;
#X connect 3 0 8 0;
#X connect 4 0 3 0;
#X connect 5 0 6 0;
#X connect 6 0 7 1;
#X connect 6 0 8 1;
#X connect 6 0 9 1;
#X connect 7 0 4 1;
#X connect 8 0 9 0;
#X connect 9 0 2 0;
#X connect 10 0 36 1;
#X connect 11 0 37 1;
#X connect 12 0 13 0;
#X connect 13 0 21 0;
#X connect 13 0 14 0;
#X connect 13 1 14 1;
#X connect 14 0 41 0;
#X connect 15 0 5 0;
#X connect 16 0 19 0;
#X connect 16 0 26 0;
#X connect 17 0 23 0;
#X connect 18 0 14 0;
#X connect 19 0 18 0;
#X connect 20 0 19 1;
#X connect 21 0 20 0;
#X connect 22 0 21 1;
#X connect 23 0 18 1;
#X connect 24 0 14 0;
#X connect 25 0 24 1;
#X connect 26 0 24 0;
#X connect 28 0 30 2;
#X connect 29 0 30 0;
#X connect 30 0 32 0;
#X connect 31 0 33 0;
#X connect 32 0 34 0;
#X connect 33 0 35 0;
#X connect 34 0 27 0;
#X connect 35 0 27 0;
#X connect 36 0 29 0;
#X connect 36 0 31 0;
#X connect 37 0 30 1;
#X connect 37 0 31 1;
#X connect 38 0 28 0;
#X connect 39 0 16 0;
#X connect 39 0 25 0;
#X connect 39 0 40 1;
#X connect 40 0 38 0;
#X connect 40 0 31 2;
#X connect 40 0 29 1;
#X connect 41 0 30 0;
#X connect 41 0 31 0;
#X connect 41 1 36 0;
#X connect 41 1 37 0;
#X connect 41 2 40 0;
#X restore 103 460 pd vumeterIn;
#X msg 134 112 55;
#X msg 120 207 55;
#X msg 301 67 100;
#X msg 171 111 0;
#X msg 155 314 0;
#X connect 0 0 7 0;
#X connect 0 0 8 0;
#X connect 0 0 9 0;
#X connect 0 0 10 0;
#X connect 1 0 15 3;
#X connect 2 0 18 3;
#X connect 3 0 11 3;
#X connect 4 0 19 3;
#X connect 5 0 11 1;
#X connect 6 0 19 1;
#X connect 7 0 15 0;
#X connect 7 1 20 0;
#X connect 7 1 23 0;
#X connect 8 0 18 0;
#X connect 8 1 21 0;
#X connect 8 1 16 0;
#X connect 9 0 11 0;
#X connect 9 1 24 0;
#X connect 9 1 5 0;
#X connect 10 0 19 0;
#X connect 10 1 17 0;
#X connect 10 1 6 0;
#X connect 13 0 22 0;
#X connect 16 0 18 2;
#X connect 17 0 19 2;
#X connect 20 0 15 1;
#X connect 21 0 18 1;
#X connect 22 0 12 0;
#X connect 23 0 15 2;
#X connect 24 0 11 2;
#X restore 105 246 pd vumeters;
#N canvas 639 166 472 536 volIndicator 0;
#X obj 214 19 r vol;
#X obj 214 47 * 100;
#X obj 214 75 i;
#X floatatom 214 259 5 0 0 0 - - -;
#X obj 151 175 change;
#X obj 214 227 max 0;
#X obj 280 178 + 1;
#X obj 214 199 i;
#X obj 227 142 == 0;
#X obj 288 128 > 0, f 4;
#X obj 280 152 spigot;
#X obj 214 169 spigot;
#X obj 59 24 inlet;
#X obj 59 58 t b f;
#X obj 59 89 spigot;
#X obj 59 471 s oscOut;
#X msg 59 390 \$1 \$2;
#X msg 127 388 \$1 \$2;
#X obj 59 362 pack 0 0;
#X obj 127 361 pack 0 0;
#X obj 214 102 / 3.4;
#X obj 214 289 - 30;
#X obj 214 319 * -1;
#X msg 127 250 98;
#X obj 68 327 +;
#X obj 59 205 t b b;
#X msg 127 412 /oled/gFillArea 3 \$1 0 \$2 2 1;
#X msg 59 438 /oled/gFillArea 3 \$1 0 \$2 2 2;
#X connect 0 0 1 0;
#X connect 1 0 2 0;
#X connect 2 0 20 0;
#X connect 3 0 21 0;
#X connect 3 0 19 1;
#X connect 3 0 24 1;
#X connect 4 0 14 0;
#X connect 5 0 3 0;
#X connect 5 0 4 0;
#X connect 6 0 7 0;
#X connect 7 0 5 0;
#X connect 8 0 11 1;
#X connect 9 0 10 1;
#X connect 10 0 6 0;
#X connect 11 0 7 0;
#X connect 12 0 13 0;
#X connect 13 0 14 0;
#X connect 13 1 14 1;
#X connect 14 0 25 0;
#X connect 16 0 27 0;
#X connect 17 0 26 0;
#X connect 18 0 16 0;
#X connect 19 0 17 0;
#X connect 20 0 8 0;
#X connect 20 0 9 0;
#X connect 20 0 10 0;
#X connect 20 0 11 0;
#X connect 21 0 22 0;
#X connect 22 0 18 1;
#X connect 23 0 19 0;
#X connect 23 0 24 0;
#X connect 24 0 18 0;
#X connect 25 0 18 0;
#X connect 25 0 19 0;
#X connect 25 1 23 0;
#X connect 26 0 15 0;
#X connect 27 0 15 0;
#X restore 90 268 pd volIndicator;
#N canvas 637 126 580 650 midiSigInd 0;
#X obj 82 40 inlet;
#X obj 156 35 midiin;
#X obj 156 107 bng 15 250 50 0 empty empty empty 17 7 0 10 -262144
-1 -1;
#N canvas 678 357 743 412 chsel 0;
#X obj 67 61 swap;
#X obj 67 86 pack;
#X obj 44 29 inlet;
#X obj 97 28 inlet;
#X obj 67 347 outlet;
#X obj 67 169 route 1;
#X obj 120 211 spigot;
#X obj 159 167 == 0;
#X obj 120 234 unpack;
#X obj 159 28 r midiWorkCh;
#X connect 0 0 1 0;
#X connect 0 1 1 1;
#X connect 1 0 5 0;
#X connect 2 0 0 0;
#X connect 3 0 0 1;
#X connect 5 0 4 0;
#X connect 5 1 6 0;
#X connect 6 0 8 0;
#X connect 7 0 6 1;
#X connect 8 1 4 0;
#X connect 9 0 5 1;
#X connect 9 0 7 0;
#X restore 400 64 pd chsel;
#X obj 400 118 bng 15 250 50 0 empty empty empty 17 7 0 10 -262144
-1 -1;
#X obj 400 35 ctlin;
#X obj 476 35 notein;
#X obj 49 334 r MidiOut;
#X text 16 14 MIDI IN;
#X text 27 288 MIDI OUT;
#X obj 49 457 delay 1000;
#X obj 49 424 bng 15 250 50 0 empty empty empty 17 7 0 10 -262144 -1
-1;
#X msg 70 483 1;
#X msg 185 495 0, f 2;
#X obj 138 457 spigot 1;
#X obj 49 391 spigot;
#X msg 215 248 0, f 2;
#X obj 156 222 spigot 1;
#X obj 155 170 spigot;
#X obj 295 227 delay 1000;
#X msg 257 252 1, f 2;
#X msg 404 261 0;
#X obj 392 227 spigot 1;
#X obj 400 147 spigot;
#X obj 155 138 spigot;
#X msg 304 149 0, f 2;
#X obj 267 35 loadbang;
#X msg 267 72 1, f 2;
#X obj 224 408 s oscOut;
#X msg 224 339 \$1;
#X msg 263 303 0;
#X msg 305 304 1;
#X msg 224 302 2;
#X msg 224 371 /oled/gSetPixel 3 3 3 \$1;
#X msg 49 517 0;
#X msg 83 517 1;
#X obj 49 615 s oscOut;
#X msg 49 546 \$1;
#X msg 49 578 /oled/gSetPixel 3 53 3 \$1;
#N canvas 421 297 1280 956 chselesp 0;
#X obj 207 372 f;
#X obj 168 372 f;
#X obj 238 152 f;
#X obj 35 100 t b f;
#X obj 238 174 sel 1;
#X obj 237 325 t b b;
#X obj 35 26 inlet;
#X obj 199 37 inlet;
#X obj 274 39 inlet;
#X obj 189 442 outlet;
#X obj 303 199 spigot;
#X obj 342 155 == 0;
#X obj 303 246 bng 15 250 50 0 empty empty empty 17 7 0 10 -262144
-1 -1;
#X obj 342 33 r midiWorkCh;
#X obj 189 408 bng 15 250 50 0 empty empty empty 17 7 0 10 -262144
-1 -1;
#X obj 96 77 metro 500;
#X obj 57 62 bng 15 250 50 0 empty empty empty 17 7 0 10 -262144 -1
-1;
#X connect 0 0 14 0;
#X connect 1 0 14 0;
#X connect 2 0 4 0;
#X connect 3 1 1 1;
#X connect 4 0 5 0;
#X connect 4 1 10 0;
#X connect 5 0 1 0;
#X connect 5 1 0 0;
#X connect 6 0 3 0;
#X connect 6 0 16 0;
#X connect 7 0 0 1;
#X connect 8 0 2 1;
#X connect 10 0 12 0;
#X connect 11 0 10 1;
#X connect 12 0 5 0;
#X connect 13 0 4 1;
#X connect 13 0 11 0;
#X connect 14 0 9 0;
#X connect 15 0 2 0;
#X connect 16 0 15 0;
#X restore 471 64 pd chselesp;
#X connect 0 0 15 1;
#X connect 0 0 18 1;
#X connect 0 0 23 1;
#X connect 1 0 2 0;
#X connect 2 0 24 0;
#X connect 3 0 4 0;
#X connect 4 0 23 0;
#X connect 4 0 25 0;
#X connect 5 0 3 0;
#X connect 5 2 3 1;
#X connect 6 0 39 0;
#X connect 6 1 39 1;
#X connect 6 2 39 2;
#X connect 7 0 15 0;
#X connect 10 0 12 0;
#X connect 10 0 34 0;
#X connect 11 0 10 0;
#X connect 11 0 14 0;
#X connect 12 0 14 1;
#X connect 13 0 14 1;
#X connect 14 0 13 0;
#X connect 14 0 34 0;
#X connect 14 0 35 0;
#X connect 15 0 11 0;
#X connect 16 0 17 1;
#X connect 17 0 16 0;
#X connect 17 0 32 0;
#X connect 18 0 17 0;
#X connect 18 0 19 0;
#X connect 19 0 20 0;
#X connect 19 0 30 0;
#X connect 20 0 22 1;
#X connect 20 0 24 1;
#X connect 20 0 17 1;
#X connect 21 0 22 1;
#X connect 22 0 21 0;
#X connect 22 0 31 0;
#X connect 23 0 19 0;
#X connect 23 0 22 0;
#X connect 24 0 18 0;
#X connect 25 0 24 1;
#X connect 26 0 27 0;
#X connect 27 0 24 1;
#X connect 29 0 33 0;
#X connect 30 0 29 0;
#X connect 31 0 29 0;
#X connect 32 0 29 0;
#X connect 33 0 28 0;
#X connect 34 0 37 0;
#X connect 35 0 37 0;
#X connect 37 0 38 0;
#X connect 38 0 36 0;
#X connect 39 0 4 0;
#X restore 75 289 pd midiSigInd;
#X text 27 16 Uses 128px X 14px;
#N canvas 623 235 1103 533 ledIndicator 0;
#X obj 482 13 r ledState;
#X obj 482 146 sel 0 1 2 3 4 5 6 7, f 63;
#X obj 328 93 change;
#X obj 482 70 i;
#X obj 111 178 t b b b b b b b b b;
#X obj 626 283 f;
#X obj 174 286 f;
#X obj 112 26 inlet;
#X obj 112 60 t b f;
#X obj 112 91 spigot;
#X obj 406 182 delay 10;
#X obj 263 124 spigot;
#X obj 174 391 s oscOut;
#X msg 174 358 /oled/gFillArea 3 \$1 4 2 2 2;
#X msg 174 324 \$1;
#X obj 627 434 s oscOut;
#X msg 627 367 \$1;
#X msg 627 401 /oled/gFillArea 3 \$1 4 2 2 1;
#X obj 519 276 != 0;
#X obj 627 331 spigot;
#X msg 48 232 100;
#X msg 94 230 104;
#X msg 142 230 108;
#X msg 189 230 112;
#X msg 236 230 116;
#X msg 280 231 120;
#X msg 330 230 124;
#X msg 528 182 100;
#X msg 575 182 104;
#X msg 622 182 108;
#X msg 669 182 112;
#X msg 716 182 116;
#X msg 763 182 120;
#X msg 810 182 124;
#X obj 406 13 loadbang;
#X connect 0 0 3 0;
#X connect 1 0 9 0;
#X connect 1 1 27 0;
#X connect 1 2 28 0;
#X connect 1 3 29 0;
#X connect 1 4 30 0;
#X connect 1 5 31 0;
#X connect 1 6 32 0;
#X connect 1 7 33 0;
#X connect 2 0 11 0;
#X connect 3 0 1 0;
#X connect 3 0 2 0;
#X connect 3 0 18 0;
#X connect 4 2 20 0;
#X connect 4 3 21 0;
#X connect 4 4 22 0;
#X connect 4 5 23 0;
#X connect 4 6 24 0;
#X connect 4 7 25 0;
#X connect 4 8 26 0;
#X connect 5 0 19 0;
#X connect 6 0 14 0;
#X connect 7 0 8 0;
#X connect 8 0 9 0;
#X connect 8 1 9 1;
#X connect 8 1 11 1;
#X connect 9 0 4 0;
#X connect 10 0 5 0;
#X connect 11 0 10 0;
#X connect 11 0 4 0;
#X connect 13 0 12 0;
#X connect 14 0 13 0;
#X connect 16 0 17 0;
#X connect 17 0 15 0;
#X connect 18 0 19 1;
#X connect 19 0 16 0;
#X connect 20 0 6 0;
#X connect 21 0 6 0;
#X connect 22 0 6 0;
#X connect 23 0 6 0;
#X connect 24 0 6 0;
#X connect 25 0 6 0;
#X connect 26 0 6 0;
#X connect 27 0 5 1;
#X connect 28 0 5 1;
#X connect 29 0 5 1;
#X connect 30 0 5 1;
#X connect 31 0 5 1;
#X connect 32 0 5 1;
#X connect 33 0 5 1;
#X connect 34 0 10 0;
#X restore 60 309 pd ledIndicator;
#N canvas 362 236 684 372 infoGraphics 0;
#X obj 24 15 inlet;
#X obj 24 49 t b f;
#X obj 24 80 spigot;
#X obj 24 192 s oscOut;
#X msg 24 135 /oled/gPrintln 3 0 1 1 1 I;
#X msg 200 134 /oled/gPrintln 3 48 1 1 1 O;
#X connect 0 0 1 0;
#X connect 1 0 2 0;
#X connect 1 1 2 1;
#X connect 2 0 4 0;
#X connect 2 0 5 0;
#X connect 4 0 3 0;
#X connect 5 0 3 0;
#X restore 120 225 pd infoGraphics;
#N canvas 157 155 450 280 clearInfoBar 0;
#X obj 21 13 inlet;
#X obj 21 121 s oscOut;
#X obj 21 46 t b;
#X msg 21 85 /oled/gFillArea 3 0 0 128 7 0;
#X connect 0 0 2 0;
#X connect 2 0 3 0;
#X connect 3 0 1 0;
#X restore 135 204 pd clearInfoBar;
#X obj 60 169 t f f f f f b;
#X obj 75 46 r InfoBar;
#X obj 25 85 delay 1;
#X obj 60 123 f;
#X connect 7 0 4 0;
#X connect 7 1 2 0;
#X connect 7 2 1 0;
#X connect 7 3 0 0;
#X connect 7 4 5 0;
#X connect 7 5 6 0;
#X connect 8 0 9 0;
#X connect 8 0 10 1;
#X connect 9 0 10 0;
#X connect 10 0 7 0;
