#N canvas 480 393 1146 280 10;
#X obj 122 45 r screenLine1;
#X obj 307 45 r screenLine2;
#X obj 515 45 r screenLine3;
#X obj 707 45 r screenLine4;
#X obj 924 45 r screenLine5;
#X obj 924 84 screenlineabs 5;
#X obj 924 123 s IoscOut;
#X obj 122 123 s IoscOut;
#X obj 307 123 s IoscOut;
#X obj 515 123 s IoscOut;
#X obj 707 123 s IoscOut;
#X obj 122 84 screenlineabs 1;
#X obj 307 84 screenlineabs 2;
#X obj 515 84 screenlineabs 3;
#X obj 707 84 screenlineabs 4;
#X connect 0 0 11 0;
#X connect 1 0 12 0;
#X connect 2 0 13 0;
#X connect 3 0 10 0;
#X connect 3 0 14 0;
#X connect 4 0 5 0;
#X connect 5 0 6 0;
#X connect 11 0 7 0;
#X connect 12 0 8 0;
#X connect 13 0 9 0;
#X connect 14 0 10 0;
